<?xml version="1.0" encoding="UTF-8"?>
<svg version="1.1" xmlns="http://www.w3.org/2000/svg" width="512" height="512">
<path d="M0 0 C168.96 0 337.92 0 512 0 C512 168.96 512 337.92 512 512 C343.04 512 174.08 512 0 512 C0 343.04 0 174.08 0 0 Z " fill="#FEFEFE" transform="translate(0,0)"/>
<path d="M0 0 C13.17429396 10.1400955 21.8279082 23.72122477 24.95703125 40.19140625 C26.60567636 55.65508679 27.33667395 71.91503454 20.37890625 86.1484375 C19.87101562 87.20804687 19.363125 88.26765625 18.83984375 89.359375 C11.91483032 102.38890264 1.37456026 111.37552026 -12.37109375 116.5234375 C-31.02163257 121.76408477 -51.35710155 118.16727976 -68.1796875 109.19140625 C-78.73074228 103.08004737 -87.76427285 95.47690802 -96.62109375 87.1484375 C-99.26994039 84.79437507 -101.94138502 82.46726855 -104.62109375 80.1484375 C-99.92366843 72.58672846 -94.39524241 65.89255184 -88.62109375 59.1484375 C-84.41710269 62.69847439 -80.33734298 66.33759837 -76.30859375 70.0859375 C-63.3664509 81.83233889 -47.85968468 91.92473906 -29.8359375 91.515625 C-19.27810158 90.30974824 -10.32921248 85.35279089 -3.62109375 77.1484375 C2.01263014 68.14977445 2.63205813 58.77824715 0.9375 48.4609375 C-1.56247623 38.64971005 -6.85020117 29.33717077 -15.25390625 23.55078125 C-23.7543569 18.51503573 -31.70625412 16.49937843 -41.62109375 18.1484375 C-52.18574286 21.45893542 -60.53921106 27.89168115 -68.18115234 35.69091797 C-69.64015097 37.16772736 -71.13361506 38.59967558 -72.640625 40.02734375 C-78.93437151 46.05153134 -84.40944666 52.45097239 -89.69921875 59.36328125 C-97.26971361 69.24523772 -105.25578567 78.8645845 -113.6875 88.0234375 C-115.52178721 90.03930062 -117.25566199 92.11422912 -118.99609375 94.2109375 C-131.90847531 108.92573388 -153.77509865 123.20275171 -173.62109375 125.1484375 C-192.44267744 126.31765709 -208.03430835 119.67414624 -222.078125 107.4765625 C-223.33689453 106.32414062 -223.33689453 106.32414062 -224.62109375 105.1484375 C-225.44996094 104.40078125 -226.27882812 103.653125 -227.1328125 102.8828125 C-234.32992139 96.05855227 -239.94950792 88.23529942 -245.62109375 80.1484375 C-243.93044789 75.86406786 -240.8075407 72.92468151 -237.68359375 69.6484375 C-232.89459602 64.61712248 -232.89459602 64.61712248 -228.62109375 59.1484375 C-225.04238875 60.61138064 -223.35939202 62.45239358 -221.05859375 65.5234375 C-213.65898113 75.00976834 -206.13944054 84.00729093 -195.62109375 90.1484375 C-194.7703125 90.65375 -193.91953125 91.1590625 -193.04296875 91.6796875 C-184.83760766 95.9982986 -176.73226845 96.46733713 -167.70703125 94.51953125 C-155.93462367 90.73675475 -146.40116604 82.57546492 -137.62109375 74.1484375 C-137.0075 73.57480469 -136.39390625 73.00117188 -135.76171875 72.41015625 C-131.08849067 67.9191412 -127.08327537 62.93110513 -123.02832031 57.88525391 C-121.41383994 55.89264229 -119.78061813 53.91631459 -118.14453125 51.94140625 C-117.53230713 51.20196777 -116.92008301 50.4625293 -116.28930664 49.70068359 C-115.08381038 48.24571416 -113.87732317 46.79156499 -112.66967773 45.33837891 C-109.88011499 41.96360708 -107.16334039 38.5647686 -104.56640625 35.0390625 C-101.81758336 31.33689063 -98.84287658 27.94058689 -95.68359375 24.5859375 C-95.15564209 24.02221436 -94.62769043 23.45849121 -94.08374023 22.87768555 C-93.05020445 21.77739826 -92.01458223 20.67906592 -90.9765625 19.58300781 C-89.89061315 18.43368534 -88.8163731 17.2733038 -87.74609375 16.109375 C-64.78184306 -8.11790947 -29.52576588 -20.85724743 0 0 Z " fill="#AA0303" transform="translate(431.62109375,198.8515625)"/>
<path d="M0 0 C13.57869746 8.63961197 25.03176607 20.40839878 36.19189453 31.89892578 C34.49772037 36.2084813 31.33264288 39.16882521 28.19189453 42.46142578 C27.10668305 43.6067846 26.02327988 44.7538601 24.94189453 45.90283203 C24.46236328 46.4062915 23.98283203 46.90975098 23.48876953 47.4284668 C21.97567271 49.07771903 21.97567271 49.07771903 20.19189453 51.89892578 C16.84301808 50.45135596 14.73005866 48.63799318 12.21533203 46.01220703 C11.46123047 45.238125 10.70712891 44.46404297 9.93017578 43.66650391 C8.37568415 42.0516312 6.82353118 40.43450344 5.27392578 38.81494141 C-1.6657381 31.70501505 -9.08482731 25.93822052 -18.05810547 21.58642578 C-19.01201172 21.11591797 -19.96591797 20.64541016 -20.94873047 20.16064453 C-29.71880321 16.29079003 -39.91657955 14.95684884 -49.24560547 17.96142578 C-59.22665789 22.71430789 -63.77178579 31.00116797 -67.80810547 40.89892578 C-70.99639009 52.49607803 -69.53640843 65.44549983 -63.80810547 75.89892578 C-59.6807223 82.34141473 -54.27326059 86.94760226 -46.80810547 88.89892578 C-31.69934155 90.84042546 -18.68458949 88.18769562 -6.34716797 78.98486328 C3.1682647 71.16756937 12.071708 62.59255078 20.10986328 53.26611328 C23.22763928 49.72132481 26.4464487 46.27133942 29.6652832 42.81835938 C32.33285302 39.94750801 34.94365645 37.04146076 37.50439453 34.07470703 C52.47730119 16.90593824 73.96229479 -6.91579983 98.40966797 -9.3190918 C119.16811663 -10.34595893 135.44077173 -4.28711729 151.25830078 9.20361328 C157.44339998 14.88632759 163.42185252 20.79500894 169.19189453 26.89892578 C169.71686523 27.44371582 170.24183594 27.98850586 170.78271484 28.54980469 C172.19970703 30.10595703 172.19970703 30.10595703 174.19189453 32.89892578 C173.84077032 35.96138252 172.70551488 37.8455277 170.79345703 40.21142578 C170.31392578 40.81212891 169.83439453 41.41283203 169.34033203 42.03173828 C168.83759766 42.64791016 168.33486328 43.26408203 167.81689453 43.89892578 C166.82963058 45.12786372 165.84264391 46.35702448 164.85595703 47.58642578 C164.39350586 48.15876953 163.93105469 48.73111328 163.45458984 49.32080078 C161.99137948 51.14953082 160.57890903 53.01183122 159.19189453 54.89892578 C155.58055581 53.69514621 154.93394076 52.53548788 152.69189453 49.52392578 C143.25974286 37.47077401 129.99639989 23.86742418 114.19189453 20.89892578 C98.2102426 19.63911088 87.79263809 23.90070687 75.19189453 33.89892578 C71.68449965 37.04520272 68.36295534 40.34565297 65.06689453 43.71142578 C64.1887207 44.59870361 63.31054688 45.48598145 62.40576172 46.40014648 C57.47216676 51.42918576 52.84236879 56.49801073 48.52001953 62.05908203 C43.35954562 68.35382118 37.61443876 74.15487291 31.98193359 80.02539062 C30.52539293 81.5498714 29.08642758 83.09112937 27.65283203 84.63720703 C11.89167181 101.25431041 -12.38015831 114.63548785 -35.47216797 116.13720703 C-51.95867391 116.44612578 -65.3688127 111.26914176 -77.55810547 99.83642578 C-86.52563211 90.37717329 -91.7268395 79.55474702 -94.80810547 66.89892578 C-94.99888672 66.13451172 -95.18966797 65.37009766 -95.38623047 64.58251953 C-98.38974353 45.47683923 -93.72407447 27.01813731 -82.89404297 11.08251953 C-60.74781807 -17.8134512 -29.31127679 -17.84956229 0 0 Z " fill="#A90303" transform="translate(149.80810546875,200.10107421875)"/>
<path d="M0 0 C6.93 0 13.86 0 21 0 C21 0.66 21 1.32 21 2 C23.31 2 25.62 2 28 2 C28 2.66 28 3.32 28 4 C28.61875 4.144375 29.2375 4.28875 29.875 4.4375 C32 5 32 5 34 6 C34 6.66 34 7.32 34 8 C34.5775 8.12375 35.155 8.2475 35.75 8.375 C38.02335767 9.00648824 39.9253529 9.88858191 42 11 C42 11.66 42 12.32 42 13 C42.99 13 43.98 13 45 13 C46.26466048 14.49165082 47.52543367 15.98798145 48.7265625 17.53125 C50.26588587 19.30666591 51.80557877 20.1872514 54 21 C53.67 22.32 53.34 23.64 53 25 C52.53851563 24.50371094 52.07703125 24.00742188 51.6015625 23.49609375 C42.53517689 14.05343522 28.54192111 2.86318952 14.93359375 1.84545898 C12.66044156 1.80405231 10.39791895 1.82491874 8.125 1.875 C7.34125 1.88402344 6.5575 1.89304688 5.75 1.90234375 C3.83319945 1.92571937 1.91655809 1.96158347 0 2 C0 1.34 0 0.68 0 0 Z " fill="#9B2426" transform="translate(103,215)"/>
<path d="M0 0 C0.99 0.99 1.98 1.98 3 3 C2.071875 3.556875 1.14375 4.11375 0.1875 4.6875 C-3.07661839 7.05558589 -4.13794102 8.51875931 -6 12 C-6.9120256 13.17029834 -7.82899356 14.33675625 -8.75 15.5 C-10.83727195 18.34609876 -10.83727195 18.34609876 -10.8125 21.9375 C-10.544375 22.618125 -10.27625 23.29875 -10 24 C-9.01 24.33 -8.02 24.66 -7 25 C-6.3125 27.0625 -6.3125 27.0625 -6 29 C-10.21029436 26.41641028 -13.01562427 23.91212732 -16 20 C-15.62190186 19.53625977 -15.24380371 19.07251953 -14.85424805 18.59472656 C-13.13119719 16.48046946 -11.4093384 14.36524462 -9.6875 12.25 C-9.09259766 11.52039063 -8.49769531 10.79078125 -7.88476562 10.0390625 C-7.30791016 9.33007812 -6.73105469 8.62109375 -6.13671875 7.890625 C-5.60780029 7.24125977 -5.07888184 6.59189453 -4.53393555 5.92285156 C-2.98181581 3.97720537 -1.48329048 1.9984569 0 0 Z " fill="#5B1B1D" transform="translate(343,258)"/>
<path d="M0 0 C1.16015625 0.50660156 1.16015625 0.50660156 2.34375 1.0234375 C17.21127346 7.38997601 28.50810214 9.1528105 44 3 C44 3.99 44 4.98 44 6 C42.60550891 6.483059 41.20933293 6.96125517 39.8125 7.4375 C39.03519531 7.70433594 38.25789063 7.97117187 37.45703125 8.24609375 C29.02443816 10.83351897 17.42918022 11.20682725 9.375 7.125 C8.26125 6.42375 7.1475 5.7225 6 5 C4.845 4.4225 3.69 3.845 2.5 3.25 C1.675 2.8375 0.85 2.425 0 2 C0 1.34 0 0.68 0 0 Z " fill="#971719" transform="translate(373,283)"/>
<path d="M0 0 C2.66666667 1.33333333 5.33333333 2.66666667 8 4 C8 4.66 8 5.32 8 6 C8.99 6 9.98 6 11 6 C11.33 6.66 11.66 7.32 12 8 C13.64363134 8.72159424 15.31050386 9.39351421 17 10 C17 10.66 17 11.32 17 12 C17.66 12 18.32 12 19 12 C19 12.66 19 13.32 19 14 C19.78375 14.144375 20.5675 14.28875 21.375 14.4375 C24 15 24 15 26 16 C26 16.66 26 17.32 26 18 C27.65 18 29.3 18 31 18 C30.67 18.66 30.34 19.32 30 20 C19.00211072 16.65990029 6.69628566 9.57506267 0 0 Z " fill="#761D21" transform="translate(342,291)"/>
<path d="M0 0 C0.66 0.33 1.32 0.66 2 1 C-0.78537997 4.61067774 -3.75966283 7.79607111 -7 11 C-8.11134586 12.1100079 -9.22198839 13.22072031 -10.33203125 14.33203125 C-13.5546875 17.5546875 -16.77734375 20.77734375 -20 24 C-20.99 23.67 -21.98 23.34 -23 23 C-15.41 15.41 -7.82 7.82 0 0 Z " fill="#A40E10" transform="translate(210,211)"/>
<path d="M0 0 C0 3.92056085 -0.93915462 5.93183844 -3.69921875 8.7109375 C-4.35535156 9.26007813 -5.01148438 9.80921875 -5.6875 10.375 C-6.39777344 10.97570312 -7.10804688 11.57640625 -7.83984375 12.1953125 C-8.55269531 12.79085938 -9.26554687 13.38640625 -10 14 C-11.25091306 15.0822789 -12.50097961 16.16553737 -13.75 17.25 C-16.1020314 19.26295136 -18.48593515 21.18987331 -21 23 C-21.66 22.67 -22.32 22.34 -23 22 C-13.38805895 13.29703527 -13.38805895 13.29703527 -9.25 9.875 C-5.75815226 6.92227364 -2.86778531 3.55059134 0 0 Z " fill="#FADCDA" transform="translate(320,284)"/>
<path d="M0 0 C0.66 1.32 1.32 2.64 2 4 C0.90038889 5.09961111 -0.20035372 6.19810068 -1.3046875 7.29296875 C-2.61669623 8.61404667 -3.90999843 9.95371722 -5.1953125 11.30078125 C-6.36707031 12.51314453 -6.36707031 12.51314453 -7.5625 13.75 C-8.30628906 14.52859375 -9.05007813 15.3071875 -9.81640625 16.109375 C-11.98445523 17.98654084 -13.20183711 18.61929757 -16 19 C-11.71854869 13.95008307 -7.32282771 9.02312646 -2.85546875 4.13671875 C-0.96657599 2.14046558 -0.96657599 2.14046558 0 0 Z " fill="#A71517" transform="translate(307,258)"/>
<path d="M0 0 C6.52576241 4.7681072 12.77352578 9.8494239 19 15 C18.01 15.495 18.01 15.495 17 16 C14.375 15.0625 14.375 15.0625 12 14 C12 13.01 12 12.02 12 11 C10.02 11 8.04 11 6 11 C5.7525 10.05125 5.505 9.1025 5.25 8.125 C4.3142923 4.91306809 4.3142923 4.91306809 1.875 3.625 C1.25625 3.41875 0.6375 3.2125 0 3 C0 2.01 0 1.02 0 0 Z " fill="#631013" transform="translate(350,265)"/>
<path d="M0 0 C0.8203125 1.6015625 0.8203125 1.6015625 1 4 C-0.63297305 6.31487389 -2.22907131 8.29713876 -4.125 10.375 C-5.10694176 11.48682823 -6.08871346 12.59880668 -7.0703125 13.7109375 C-7.55532227 14.25202148 -8.04033203 14.79310547 -8.54003906 15.35058594 C-10.75366604 17.85146618 -12.87503527 20.42357756 -15 23 C-15.66 22.34 -16.32 21.68 -17 21 C-16.34 21 -15.68 21 -15 21 C-14.76023437 20.45085937 -14.52046875 19.90171875 -14.2734375 19.3359375 C-12.69970178 16.44914621 -10.74389392 14.13810675 -8.625 11.625 C-5.49783267 7.86333495 -2.58105552 4.1521328 0 0 Z " fill="#F7B5B5" transform="translate(324,234)"/>
<path d="M0 0 C0.66 0.33 1.32 0.66 2 1 C0.13123579 3.23465493 -1.74464262 5.4626327 -3.625 7.6875 C-4.14707031 8.31333984 -4.66914063 8.93917969 -5.20703125 9.58398438 C-8.53554904 13.50834794 -11.95151263 16.82078244 -16 20 C-16.33 19.34 -16.66 18.68 -17 18 C-16.34 18 -15.68 18 -15 18 C-14.73703125 17.40832031 -14.4740625 16.81664062 -14.203125 16.20703125 C-12.94622604 13.90135622 -11.65231376 12.4827015 -9.75 10.6875 C-6.25449813 7.30191957 -3.12222532 3.73144002 0 0 Z " fill="#E9B9BA" transform="translate(185,234)"/>
<path d="M0 0 C0.99 0.33 1.98 0.66 3 1 C2.319375 1.680625 1.63875 2.36125 0.9375 3.0625 C0.47988281 3.52269531 0.02226562 3.98289062 -0.44921875 4.45703125 C-1.50403627 5.50653483 -2.56963962 6.54528448 -3.64453125 7.57421875 C-8.25266102 12.03671914 -12.16684481 16.86194092 -16 22 C-16.66 21.34 -17.32 20.68 -18 20 C-16.80503906 18.71416016 -16.80503906 18.71416016 -15.5859375 17.40234375 C-10.28538723 11.68680081 -5.00532016 5.97857685 0 0 Z " fill="#F8B5B3" transform="translate(202,257)"/>
<path d="M0 0 C1.98 0.66 3.96 1.32 6 2 C6 2.66 6 3.32 6 4 C6.99 4 7.98 4 9 4 C10.26466048 5.49165082 11.52543367 6.98798145 12.7265625 8.53125 C14.26588587 10.30666591 15.80557877 11.1872514 18 12 C17.67 13.32 17.34 14.64 17 16 C16.52691406 15.50371094 16.05382812 15.00742188 15.56640625 14.49609375 C11.20581497 10.01649997 6.70961857 6.07182864 1.6875 2.34765625 C1.130625 1.90292969 0.57375 1.45820313 0 1 C0 0.67 0 0.34 0 0 Z " fill="#721A1D" transform="translate(139,224)"/>
<path d="M0 0 C0 3.53930317 -0.69007988 4.27338729 -2.8125 7 C-3.59560547 8.0209375 -3.59560547 8.0209375 -4.39453125 9.0625 C-5.84895185 10.81771318 -7.35760525 12.42172276 -9 14 C-9.99 13.67 -10.98 13.34 -12 13 C-10.18777319 11.02058257 -8.37523172 9.04145495 -6.5625 7.0625 C-6.04623047 6.49853516 -5.52996094 5.93457031 -4.99804688 5.35351562 C-1.11328125 1.11328125 -1.11328125 1.11328125 0 0 Z " fill="#A71A1B" transform="translate(343,216)"/>
<path d="M0 0 C6.61519148 3.30759574 11.63820705 7.95106821 17 13 C16.01 13.33 15.02 13.66 14 14 C14 13.34 14 12.68 14 12 C13.34 12 12.68 12 12 12 C12 11.34 12 10.68 12 10 C11.38125 9.690625 10.7625 9.38125 10.125 9.0625 C8.75 8.375 7.375 7.6875 6 7 C6 6.34 6 5.68 6 5 C5.195625 4.731875 4.39125 4.46375 3.5625 4.1875 C2.716875 3.795625 1.87125 3.40375 1 3 C0.67 2.01 0.34 1.02 0 0 Z " fill="#7E1415" transform="translate(150,201)"/>
<path d="M0 0 C0.33 0 0.66 0 1 0 C1.27794711 2.37463508 1.52273673 4.7454199 1.75 7.125 C1.83121094 7.79015625 1.91242188 8.4553125 1.99609375 9.140625 C2.34083661 13.04771074 2.00180226 14.99661508 0.140625 18.4921875 C-0.56578125 19.31976563 -1.2721875 20.14734375 -2 21 C-2.66 21 -3.32 21 -4 21 C-3.79503906 20.40574219 -3.59007812 19.81148438 -3.37890625 19.19921875 C-1.29640022 12.79227435 -0.37036322 6.71762246 0 0 Z " fill="#A92324" transform="translate(434,253)"/>
<path d="M0 0 C0.99 0.99 1.98 1.98 3 3 C2.071875 3.556875 1.14375 4.11375 0.1875 4.6875 C-3.00413561 7.00300035 -4.17070672 8.60274106 -6 12 C-7.6875 13.8125 -7.6875 13.8125 -9 15 C-7.58399311 8.86397012 -3.9336625 4.73301638 0 0 Z " fill="#4F1011" transform="translate(343,258)"/>
<path d="M0 0 C0.99 0.33 1.98 0.66 3 1 C1.78934835 4.63195496 0.46308874 5.42896192 -2.5625 7.6875 C-3.38878906 8.31011719 -4.21507812 8.93273437 -5.06640625 9.57421875 C-5.70449219 10.04472656 -6.34257812 10.51523437 -7 11 C-7.66 10.67 -8.32 10.34 -9 10 C-6.03 6.7 -3.06 3.4 0 0 Z " fill="#A51516" transform="translate(203,258)"/>
<path d="M0 0 C0 3.49505741 -0.67952019 4.41072187 -2.6875 7.1875 C-3.18636719 7.90292969 -3.68523437 8.61835938 -4.19921875 9.35546875 C-6 11 -6 11 -8.70703125 11.23828125 C-9.84205078 11.12033203 -9.84205078 11.12033203 -11 11 C-7.33333333 7.33333333 -3.66666667 3.66666667 0 0 Z " fill="#F7D3D1" transform="translate(443,298)"/>
<path d="M0 0 C2.88437779 1.29299694 4.87219421 2.65941363 7 5 C5.25 8.875 5.25 8.875 3 10 C3 8.02 3 6.04 3 4 C2.01 3.67 1.02 3.34 0 3 C0 2.01 0 1.02 0 0 Z M-1 4 C-0.01 4.495 -0.01 4.495 1 5 C0.01 5.495 0.01 5.495 -1 6 C-1 5.34 -1 4.68 -1 4 Z " fill="#5E2121" transform="translate(179,227)"/>
<path d="M0 0 C6.75 1.875 6.75 1.875 9 3 C9 3.66 9 4.32 9 5 C10.65 5 12.3 5 14 5 C13.67 5.66 13.34 6.32 13 7 C8.1725201 5.58707905 4.2837641 3.57025846 0 1 C0 0.67 0 0.34 0 0 Z " fill="#911F21" transform="translate(359,304)"/>
<path d="M0 0 C0.66 0.99 1.32 1.98 2 3 C0.27256146 6.61939504 -1.47650757 9.87567603 -4 13 C-4.66 12.67 -5.32 12.34 -6 12 C-4.02 8.04 -2.04 4.08 0 0 Z " fill="#F8D5D4" transform="translate(453,280)"/>
<path d="M0 0 C0.66 0.33 1.32 0.66 2 1 C-0.97 4.3 -3.94 7.6 -7 11 C-7 7.22089522 -6.00296038 6.53893899 -3.5 3.8125 C-2.8503125 3.09707031 -2.200625 2.38164062 -1.53125 1.64453125 C-1.0259375 1.10183594 -0.520625 0.55914062 0 0 Z " fill="#F3C9C6" transform="translate(185,234)"/>
<path d="M0 0 C-1.38009621 3.33523252 -2.84950652 5.18607951 -6 7 C-6.99 6.67 -7.98 6.34 -9 6 C-7.8803014 4.99406757 -6.7540588 3.9954151 -5.625 3 C-4.68527344 2.1646875 -4.68527344 2.1646875 -3.7265625 1.3125 C-2 0 -2 0 0 0 Z " fill="#A61215" transform="translate(221,204)"/>
<path d="M0 0 C2.16874252 0.50603992 3.99967627 0.99983813 6 2 C6 2.99 6 3.98 6 5 C6.66 5 7.32 5 8 5 C7.67 5.99 7.34 6.98 7 8 C5.83035398 6.8572081 4.66435444 5.71068285 3.5 4.5625 C2.8503125 3.92441406 2.200625 3.28632813 1.53125 2.62890625 C0 1 0 1 0 0 Z M6 1 C8 2 8 2 8 2 Z " fill="#642525" transform="translate(157,240)"/>
<path d="M0 0 C0.99 1.32 1.98 2.64 3 4 C1 5 1 5 -0.9453125 4.44140625 C-1.66460937 4.15136719 -2.38390625 3.86132812 -3.125 3.5625 C-3.84945313 3.27503906 -4.57390625 2.98757813 -5.3203125 2.69140625 C-6.15175781 2.34916016 -6.15175781 2.34916016 -7 2 C-7 1.67 -7 1.34 -7 1 C-3.535 0.505 -3.535 0.505 0 0 Z " fill="#AE3537" transform="translate(379,310)"/>
<path d="M0 0 C0.78375 0.474375 1.5675 0.94875 2.375 1.4375 C3.88948678 2.33898023 5.4235897 3.21179485 7 4 C7 4.66 7 5.32 7 6 C7.66 6.33 8.32 6.66 9 7 C3.53571429 6.39285714 3.53571429 6.39285714 1.125 4.625 C0 3 0 3 0 0 Z " fill="#7F0F13" transform="translate(352,297)"/>
<path d="M0 0 C0.8125 1.625 0.8125 1.625 1 4 C-0.46818136 6.24609835 -2.15852858 8.02378677 -4 10 C-4.99 9.67 -5.98 9.34 -7 9 C-6.57847656 8.51789063 -6.15695312 8.03578125 -5.72265625 7.5390625 C-5.17480469 6.90742188 -4.62695312 6.27578125 -4.0625 5.625 C-3.51722656 4.99851563 -2.97195313 4.37203125 -2.41015625 3.7265625 C-0.93041376 2.04367666 -0.93041376 2.04367666 0 0 Z " fill="#F1A4A2" transform="translate(324,234)"/>
<path d="M0 0 C0 4.38968456 -2.12805101 5.76905739 -5 9 C-5.66 8.01 -6.32 7.02 -7 6 C-4.69 4.02 -2.38 2.04 0 0 Z " fill="#A61617" transform="translate(154,270)"/>
<path d="M0 0 C3.7952131 1.49097658 5.61042731 3.75700849 8 7 C5.0280615 5.87548273 2.66559313 4.77706209 0 3 C0 2.01 0 1.02 0 0 Z " fill="#691B1B" transform="translate(170,218)"/>
<path d="M0 0 C0.66 0.33 1.32 0.66 2 1 C-0.65654657 4.73884332 -2.58110387 6.64978174 -7 8 C-6.02133662 6.85373678 -5.04205413 5.70800212 -4.0625 4.5625 C-3.51722656 3.92441406 -2.97195312 3.28632813 -2.41015625 2.62890625 C-1.63204305 1.73008851 -0.84063472 0.84063472 0 0 Z " fill="#A51A1C" transform="translate(210,211)"/>
<path d="M0 0 C0.99 0.66 1.98 1.32 3 2 C-0.625 6.875 -0.625 6.875 -4 8 C-2.87548273 5.0280615 -1.77706209 2.66559313 0 0 Z " fill="#AA191C" transform="translate(68,210)"/>
<path d="M0 0 C0 1.66666667 0 3.33333333 0 5 C-2.31 5.66 -4.62 6.32 -7 7 C-2.25 1.125 -2.25 1.125 0 0 Z " fill="#A61B1F" transform="translate(351,209)"/>
<path d="M0 0 C0 0.99 0 1.98 0 3 C-0.99 3.33 -1.98 3.66 -3 4 C-3.33 4.99 -3.66 5.98 -4 7 C-5.32 6.67 -6.64 6.34 -8 6 C-5.36 4.02 -2.72 2.04 0 0 Z " fill="#A21A1B" transform="translate(146,277)"/>
<path d="M0 0 C0.33 0.66 0.66 1.32 1 2 C-1.3125 4.5 -1.3125 4.5 -4 7 C-4.99 7 -5.98 7 -7 7 C-4.69 4.69 -2.38 2.38 0 0 Z " fill="#A71C1E" transform="translate(175,248)"/>
<path d="M0 0 C0.66 0.99 1.32 1.98 2 3 C0.35 4.98 -1.3 6.96 -3 9 C-3.33 7.68 -3.66 6.36 -4 5 C-3.34 5 -2.68 5 -2 5 C-2 4.01 -2 3.02 -2 2 C-1.34 2 -0.68 2 0 2 C0 1.34 0 0.68 0 0 Z " fill="#A61214" transform="translate(347,247)"/>
<path d="M0 0 C0.33 0.99 0.66 1.98 1 3 C-1.3125 6.1875 -1.3125 6.1875 -4 9 C-4.66 9 -5.32 9 -6 9 C-4.47291037 5.56404834 -2.40072955 2.88087546 0 0 Z " fill="#A41717" transform="translate(319,244)"/>
<path d="M0 0 C2.97 0.495 2.97 0.495 6 1 C6.33 2.65 6.66 4.3 7 6 C1.125 2.25 1.125 2.25 0 0 Z " fill="#A51719" transform="translate(207,303)"/>
<path d="M0 0 C0.99 0 1.98 0 3 0 C2.6875 1.875 2.6875 1.875 2 4 C1.01 4.66 0.02 5.32 -1 6 C-1.042721 4.33388095 -1.04063832 2.66617115 -1 1 C-0.67 0.67 -0.34 0.34 0 0 Z " fill="#AA0F13" transform="translate(173,283)"/>
<path d="M0 0 C0.33 0.99 0.66 1.98 1 3 C-0.65 4.65 -2.3 6.3 -4 8 C-4.66 7.67 -5.32 7.34 -6 7 C-4.02 4.69 -2.04 2.38 0 0 Z " fill="#AF2F2F" transform="translate(429,274)"/>
<path d="M0 0 C2.31 1.65 4.62 3.3 7 5 C6.01 5.495 6.01 5.495 5 6 C2.375 5.0625 2.375 5.0625 0 4 C0 2.68 0 1.36 0 0 Z " fill="#731719" transform="translate(362,275)"/>
<path d="M0 0 C2.1519437 3.22791555 2.20086443 4.28400809 2 8 C0.68 6.68 -0.64 5.36 -2 4 C-1.34 2.68 -0.68 1.36 0 0 Z " fill="#A21614" transform="translate(188,275)"/>
<path d="M0 0 C0.66 0.66 1.32 1.32 2 2 C0.02 4.31 -1.96 6.62 -4 9 C-4.66 8.34 -5.32 7.68 -6 7 C-4.02 4.69 -2.04 2.38 0 0 Z " fill="#F6ABA9" transform="translate(190,270)"/>
<path d="M0 0 C2.79872437 2.52788007 4.45773019 4.20411134 5 8 C3.68 7.67 2.36 7.34 1 7 C0.67 4.69 0.34 2.38 0 0 Z " fill="#A91F1F" transform="translate(445,214)"/>
</svg>
